<?xml version="1.0" encoding="utf-8"?>
<!-- Generator: Adobe Illustrator 24.3.0, SVG Export Plug-In . SVG Version: 6.00 Build 0)  -->
<svg version="1.1" id="Layer_1" xmlns="http://www.w3.org/2000/svg" xmlns:xlink="http://www.w3.org/1999/xlink" x="0px" y="0px"
	 viewBox="0 0 20 20" style="enable-background:new 0 0 20 20;" xml:space="preserve">

<g>
	<path class="st0" d="M19.6,14.35c-0.19,0.26-0.33,0.31-0.59,0.23c-0.18-0.06-0.23-0.21-0.27-0.36c-0.1-0.39-0.21-0.79-0.3-1.19
		c-0.02-0.09-0.05-0.1-0.13-0.1c-1.14,0-2.28,0-3.43,0c-0.08,0-0.12,0.01-0.13,0.11c-0.04,0.4-0.1,0.8-0.15,1.2
		c-0.03,0.22-0.24,0.39-0.47,0.37c-0.22-0.01-0.39-0.18-0.39-0.41c0.01-0.41,0.09-0.82,0.14-1.22c0.04-0.34,0.08-0.68,0.12-1.02
		c0.05-0.41,0.1-0.83,0.15-1.24c0.02-0.16,0.23-0.3,0.42-0.3c1.07,0,2.14,0,3.2,0c0.12,0,0.19,0.01,0.21-0.16
		c0.06-0.51,0.16-1.01,0.25-1.52c0.1-0.56,0.2-1.12,0.29-1.68c0.07-0.39,0.13-0.78,0.19-1.18c0.04-0.27,0.15-0.45,0.34-0.49
		c0.23-0.04,0.4,0.07,0.52,0.26c0,0.15,0,0.3,0,0.45c-0.18,1.52-0.48,3.02-0.72,4.54c-0.02,0.14,0,0.28,0.03,0.43
		c0.12,0.48,0.24,0.97,0.36,1.45c0.12,0.48,0.26,0.96,0.33,1.45C19.6,14.1,19.6,14.22,19.6,14.35z"/>
	<path class="st0" d="M6.27,14.2c0.03,0.11-0.06,0.26-0.22,0.35c-0.15,0.09-0.32,0.07-0.47-0.02c-0.11-0.07-0.16-0.17-0.18-0.29
		c-0.06-0.39-0.12-0.79-0.15-1.19c-0.01-0.14-0.07-0.14-0.17-0.14c-1.05,0-2.1,0-3.15,0c-0.35,0-0.35,0-0.43,0.34
		c-0.08,0.33-0.15,0.65-0.23,0.98c-0.05,0.2-0.18,0.33-0.38,0.37c-0.17,0.03-0.32-0.04-0.42-0.18c-0.1-0.14-0.08-0.3-0.04-0.46
		c0.25-1,0.51-2.01,0.75-3.01c0.06-0.26-0.04-0.52-0.08-0.78c-0.07-0.5-0.16-0.99-0.25-1.48C0.78,8.2,0.69,7.71,0.62,7.22
		c-0.07-0.46-0.19-0.91-0.2-1.38C0.41,5.57,0.56,5.4,0.81,5.39C1.04,5.38,1.24,5.56,1.28,5.8C1.4,6.54,1.53,7.28,1.65,8.02
		c0.12,0.71,0.23,1.42,0.34,2.14c0.04,0.26,0.03,0.26,0.3,0.26c1.03,0,2.06,0,3.09,0c0.3,0,0.43,0.11,0.47,0.42
		c0.09,0.64,0.18,1.29,0.26,1.93C6.16,13.21,6.21,13.66,6.27,14.2z"/>
	<path class="st0" d="M10,7.08c1.66,0,3.32,0,4.98,0c0.29,0,0.46,0.16,0.46,0.41c0,0.28-0.18,0.45-0.47,0.45c-1.44,0-2.88,0-4.33,0
		c-0.16,0-0.19,0.04-0.19,0.2c0.01,1.59,0.01,3.18,0,4.77c0,0.13,0.05,0.19,0.16,0.25c0.42,0.2,0.83,0.41,1.25,0.63
		c0.22,0.11,0.29,0.3,0.23,0.52c-0.06,0.2-0.23,0.31-0.45,0.3c-0.07,0-0.12-0.03-0.17-0.06c-0.45-0.22-0.9-0.45-1.35-0.68
		c-0.09-0.04-0.15-0.04-0.23,0C9.44,14.1,9,14.32,8.55,14.54c-0.22,0.11-0.52,0.05-0.6-0.14c-0.11-0.27-0.09-0.48,0.21-0.64
		c0.41-0.21,0.83-0.42,1.25-0.62c0.1-0.05,0.14-0.11,0.14-0.23c0-1.6,0-3.21,0-4.81c0-0.15-0.05-0.17-0.18-0.17
		c-1.45,0-2.9,0-4.34,0c-0.23,0-0.38-0.1-0.45-0.31c-0.06-0.17,0-0.35,0.16-0.48c0.08-0.07,0.18-0.08,0.28-0.08
		C6.68,7.08,8.34,7.08,10,7.08z"/>
</g>
</svg>
